{"title":"Elephant White *2011* [DVDRip.XviD-miguel] [ENG]","uid":6378594,"size":737214550,"categoryP":"video","categoryS":"movies","magnet":"?xt=urn:btih:44e7868a1e56306417b5a19c4597b30643067edd&amp;dn=Elephant+White+%2A2011%2A+%5BDVDRip.XviD-miguel%5D+%5BENG%5D&amp;tr=udp%3A%2F%2Ftracker.openbittorrent.com%3A80&amp;tr=udp%3A%2F%2Fopen.demonii.com%3A1337&amp;tr=udp%3A%2F%2Ftracker.coppersurfer.tk%3A6969&amp;tr=udp%3A%2F%2Fexodus.desync.com%3A6969","seeders":1,"leechers":0,"uploader":"miguel1983","files":-1,"time":1304948170,"description":" &lt;a href=&quot;http://img220.imageshack.us/img220/4186/elephantwhite2011.jpg&quot; rel=&quot;nofollow&quot; target=&quot;_NEW&quot;&gt;http://img220.imageshack.us/img220/4186/elephantwhite2011.jpg&lt;/a&gt;\n\nCountry.......: USA\nGenre.........: Thriller, Action\nDate release..: 2011 [World]\nDirector......: Prachya Pinkaew\nWriters.......: Kevin Bernhardt\nDuration......: 91 min.\nMore..........: http://www.imdb.com/title/tt1578882\nTrailer.......: http://www.imdb.com/video/screenplay/vi959290649\nTrailer.......:\n\nPilot :\nAn assassin is hired by a businessman to avenge the murder of his daughter by white slave traders in Thailand. \n\nCats :\nDjimon Hounsou   \t ...  \tCurtie Church\nKevin Bacon \t... \tJimmy The Brit\nJirantanin Pitakporntrakul \t... \tMae\nRon Smoorenburg \t... \tBodyguard\nAbhijati Meuk Jusakul \t... \tAdvisor Bhun\nSahajak Boonthanakit \t... \tRajahdon\nByron Gibson \t... \tBodyguard\nWeeraprawat Wongpuapan \t... \tBoss Katha\nCreighton Mark Johnson \t... \tLead Gunman Bodyguard\nSuteerush Channukool \t... \tNumber Two \n\nData Technical :\n!!! SAMPLE !!!\nAudio.....: English\nSubtitles.: None\nFormat                           : AVI\nFormat/Info                      : Audio Video Interleave\nFile size                        : 701 MiB\nDuration                         : 1h 31mn\nOverall bit rate                 : 1 072 Kbps\nWriting application              : Nandub v1.0rc2\nWriting library                  : Nandub build 1852/release\nVideo\nID                               : 0\nFormat                           : MPEG-4 Visual\nFormat profile                   : Advanced Simple@L5\nFormat settings, BVOP            : Yes\nFormat settings, QPel            : No\nFormat settings, GMC             : No warppoints\nFormat settings, Matrix          : Default (H.263)\nCodec ID                         : XVID\nCodec ID/Hint                    : XviD\nDuration                         : 1h 31mn\nBit rate                         : 899 Kbps\nWidth                            : 640 pixels\nHeight                           : 272 pixels\nDisplay aspect ratio             : 2.35:1\nFrame rate                       : 23.976 fps\nColor space                      : YUV\nChroma subsampling               : 4:2:0\nBit depth                        : 8 bits\nScan type                        : Progressive\nBits/(Pixel*Frame)               : 0.215\nStream size                      : 588 MiB (84%)\nWriting library                  : XviD 63\nAudio\nID                               : 1\nFormat                           : MPEG Audio\nFormat version                   : Version 1\nFormat profile                   : Layer 3\nMode                             : Joint stereo\nMode extension                   : MS Stereo\nCodec ID                         : 55\nCodec ID/Hint                    : MP3\nDuration                         : 1h 31mn\nBit rate mode                    : Variable\nBit rate                         : 160 Kbps\nChannel(s)                       : 2 channels\nSampling rate                    : 48.0 KHz\nStream size                      : 105 MiB (15%)\nAlignment                        : Aligned on interleaves\nInterleave, duration             : 24 ms (0.58 video frame)\nInterleave, preload duration     : 96 ms\nWriting library                  : LAME\n\nScreen : &lt;a href=&quot;\nhttp://img148.imageshack.us/img148/8471/elephantwhite2011s1.jpg&quot; rel=&quot;nofollow&quot; target=&quot;_NEW&quot;&gt;\nhttp://img148.imageshack.us/img148/8471/elephantwhite2011s1.jpg&lt;/a&gt; &lt;a href=&quot;\nhttp://img41.imageshack.us/img41/5638/elephantwhite2011s2.jpg&quot; rel=&quot;nofollow&quot; target=&quot;_NEW&quot;&gt;\nhttp://img41.imageshack.us/img41/5638/elephantwhite2011s2.jpg&lt;/a&gt; &lt;a href=&quot;\nhttp://img859.imageshack.us/img859/4147/elephantwhite2011s3.jpg&quot; rel=&quot;nofollow&quot; target=&quot;_NEW&quot;&gt;\nhttp://img859.imageshack.us/img859/4147/elephantwhite2011s3.jpg&lt;/a&gt; &lt;a href=&quot;\nhttp://img707.imageshack.us/img707/6451/elephantwhite2011s4.jpg&quot; rel=&quot;nofollow&quot; target=&quot;_NEW&quot;&gt;\nhttp://img707.imageshack.us/img707/6451/elephantwhite2011s4.jpg&lt;/a&gt; &lt;a href=&quot;\nhttp://img714.imageshack.us/img714/5933/elephantwhite2011s5.jpg&quot; rel=&quot;nofollow&quot; target=&quot;_NEW&quot;&gt;\nhttp://img714.imageshack.us/img714/5933/elephantwhite2011s5.jpg&lt;/a&gt;","torrent":{"xt":"urn:btih:44e7868a1e56306417b5a19c4597b30643067edd","amp;dn":"Elephant+White+%2A2011%2A+%5BDVDRip.XviD-miguel%5D+%5BENG%5D","amp;tr":["udp%3A%2F%2Ftracker.openbittorrent.com%3A80","udp%3A%2F%2Fopen.demonii.com%3A1337","udp%3A%2F%2Ftracker.coppersurfer.tk%3A6969","udp%3A%2F%2Fexodus.desync.com%3A6969"],"infoHash":"44e7868a1e56306417b5a19c4597b30643067edd","infoHashBuffer":{"type":"Buffer","data":[68,231,134,138,30,86,48,100,23,181,161,156,69,151,179,6,67,6,126,221]},"announce":[],"urlList":[]}}